# xmcd CD database file
#
# Track frame offsets:
#	150
#	21721
#	35963
#	55377
#	70005
#	86231
#	98610
#	115174
#	130700
#	147015
#	160427
#	172960
#	188176
#	201043
#	216401
#	230642
#
# Disc length: 3351 seconds
#
# Revision: 0
# Processed by: cddbd v1.5.2PL0 Copyright (c) Steve Scherf et al.
# Submitted via: CDex 1.70beta2
#
DISCID=ee0d1510
DTITLE=Wojciech Mlynarski, Wlodzimierz Nahorny - Pogadaj ze mna
DYEAR=2008
DGENRE=Jazz
TTITLE0=Biale zagielki
TTITLE1=Walc przedswit
TTITLE2=Lagodne swiatlo Twoich oczu
TTITLE3=Iskierki dnia
TTITLE4=Chyba ze Ty mnie polubisz
TTITLE5=Nie probuj zatrzymac milosci
TTITLE6=Ogrody dziecinstwa
TTITLE7=Wtul sie w sen
TTITLE8=Juz jest po burzy
TTITLE9=Prywatne swieto
TTITLE10=Przekorny horoskop
TTITLE11=Ktora to juz wspolna wiosna
TTITLE12=Ona chodzi tak przeslicznie
TTITLE13=Prawo do milosci
TTITLE14=Karnawalowo wiruje swiat
TTITLE15=Pogadaj ze mna
EXTD=YEAR: 2008
EXTT0=
EXTT1=
EXTT2=
EXTT3=
EXTT4=
EXTT5=
EXTT6=
EXTT7=
EXTT8=
EXTT9=
EXTT10=
EXTT11=
EXTT12=
EXTT13=
EXTT14=
EXTT15=
PLAYORDER=
